<?xml version="1.0" standalone="no"?>
<!DOCTYPE svg PUBLIC "-//W3C//DTD SVG 20010904//EN"
 "http://www.w3.org/TR/2001/REC-SVG-20010904/DTD/svg10.dtd">
<svg version="1.0" xmlns="http://www.w3.org/2000/svg"
 width="1197.000000pt" height="1197.000000pt" viewBox="0 0 1197.000000 1197.000000"
 preserveAspectRatio="xMidYMid meet">
<metadata>
Created by potrace 1.14, written by Peter Selinger 2001-2017
</metadata>
<g transform="translate(0.000000,1197.000000) scale(0.100000,-0.100000)"
fill="#000000" stroke="none">
<path d="M9554 10641 c19 -7 19 -8 1 -15 -11 -4 -22 -2 -26 6 -7 10 -11 10
-21 0 -6 -6 -22 -12 -33 -12 -12 0 -25 -3 -29 -7 -4 -5 -11 -8 -14 -8 -23 -2
-89 -31 -106 -46 -11 -11 -25 -19 -32 -19 -21 0 -64 -27 -56 -36 4 -4 -2 -2
-13 6 -11 8 -17 10 -13 6 10 -12 -29 -39 -42 -31 -6 3 -10 1 -10 -5 0 -6 -8
-13 -17 -17 -10 -3 -31 -15 -47 -27 -20 -13 -27 -15 -22 -5 4 7 -1 4 -10 -8
-9 -13 -25 -23 -36 -23 -10 0 -16 -4 -13 -10 5 -9 -7 -14 -27 -12 -3 1 -12 -6
-20 -16 -12 -16 -11 -16 7 -2 19 14 19 14 6 -2 -7 -10 -19 -18 -27 -18 -7 0
-11 -8 -9 -19 2 -12 -5 -22 -21 -30 -19 -8 -24 -8 -18 0 5 8 3 9 -7 3 -8 -4
-20 -9 -28 -11 -8 -1 -17 -7 -21 -13 -6 -9 -9 -9 -13 1 -4 9 -6 8 -6 -5 -1
-13 -6 -16 -18 -12 -10 4 -14 4 -10 0 9 -9 -42 -36 -54 -28 -5 3 -9 -2 -9 -10
0 -10 -6 -13 -15 -10 -8 4 -15 1 -15 -5 0 -6 -6 -11 -14 -11 -7 0 -26 -10 -42
-22 -15 -13 -24 -16 -19 -9 6 10 4 12 -4 7 -7 -5 -10 -15 -7 -23 4 -9 2 -11
-6 -7 -6 4 -16 0 -22 -8 -6 -8 -15 -17 -21 -19 -5 -2 -9 -7 -8 -11 2 -4 -7
-10 -19 -13 -16 -6 -18 -9 -7 -16 10 -6 8 -9 -8 -9 -13 0 -23 -5 -23 -11 0 -5
-4 -7 -10 -4 -5 3 -10 1 -10 -5 0 -6 -5 -8 -12 -4 -8 5 -9 2 -5 -9 3 -9 3 -16
-1 -16 -19 3 -33 -2 -27 -10 3 -5 0 -13 -6 -16 -5 -4 -8 -13 -5 -20 6 -16 -41
-49 -67 -47 -11 0 -17 -4 -14 -11 3 -8 -5 -14 -21 -15 -13 -1 -31 -10 -39 -20
-8 -9 -12 -12 -9 -5 4 7 -4 6 -24 -3 -16 -9 -30 -20 -30 -25 0 -6 -4 -7 -10
-4 -5 3 -10 1 -10 -4 0 -6 -7 -11 -15 -11 -8 0 -15 -7 -15 -16 0 -8 -5 -12
-10 -9 -6 4 -23 -7 -40 -23 -16 -16 -32 -27 -35 -24 -3 3 -5 0 -5 -6 0 -7 -7
-12 -16 -12 -8 0 -13 -4 -10 -9 7 -11 -22 -23 -36 -14 -7 4 -8 1 -4 -6 5 -8 0
-14 -13 -18 -11 -3 -18 -9 -15 -14 3 -5 -1 -9 -9 -9 -8 0 -26 -11 -41 -25 -14
-13 -26 -21 -26 -17 -1 4 -9 -3 -19 -15 -10 -12 -21 -19 -25 -16 -3 4 -6 1 -6
-6 0 -6 -12 -16 -26 -21 -14 -6 -22 -15 -19 -20 4 -6 3 -10 -2 -9 -20 3 -34
-2 -28 -11 3 -5 0 -10 -8 -10 -14 0 -27 -19 -33 -48 -1 -6 2 -10 7 -6 5 3 9 0
9 -5 0 -21 2 -26 13 -40 9 -12 9 -13 0 -7 -8 4 -13 2 -13 -7 0 -8 -12 -27 -26
-42 -14 -15 -30 -38 -35 -51 -4 -13 -15 -24 -23 -24 -10 0 -13 -7 -11 -20 2
-11 0 -18 -6 -15 -5 4 -9 2 -9 -4 0 -5 -7 -17 -16 -25 -12 -12 -12 -16 -2 -16
7 -1 2 -7 -12 -15 -14 -8 -21 -14 -16 -15 5 0 1 -9 -9 -20 -10 -11 -15 -20
-11 -20 4 0 1 -6 -6 -14 -7 -8 -16 -12 -20 -9 -5 2 -8 0 -8 -6 0 -12 -63 -79
-67 -71 -1 3 -12 -3 -23 -12 -11 -10 -25 -18 -30 -18 -6 0 -10 -5 -10 -11 0
-5 -4 -8 -9 -4 -5 3 -12 1 -16 -5 -4 -6 -10 -8 -15 -5 -5 3 -12 0 -17 -7 -4
-7 -15 -13 -23 -13 -8 0 -14 -5 -13 -12 1 -6 -5 -10 -15 -9 -9 2 -32 -6 -50
-16 -19 -10 -31 -14 -27 -8 3 5 2 10 -3 10 -6 0 -13 -7 -16 -16 -4 -9 -9 -14
-13 -11 -3 4 -15 1 -27 -5 -11 -7 -23 -13 -26 -13 -3 -1 -23 -10 -45 -20 -22
-10 -44 -17 -49 -16 -14 3 -36 -21 -29 -33 4 -7 1 -7 -7 1 -11 10 -17 8 -31
-8 -10 -11 -20 -20 -23 -20 -20 3 -26 0 -21 -9 3 -6 -1 -7 -9 -4 -9 3 -16 1
-16 -5 0 -6 -6 -11 -14 -11 -7 0 -24 -8 -37 -19 -13 -10 -30 -16 -38 -13 -8 2
-11 0 -8 -5 3 -5 -15 -21 -41 -35 -26 -15 -46 -32 -44 -39 2 -10 0 -10 -12 1
-13 10 -16 10 -16 -3 0 -14 -34 -31 -55 -27 -5 1 -7 -1 -3 -5 10 -10 -18 -36
-41 -38 -16 -1 -18 -4 -8 -16 10 -12 9 -13 -1 -7 -8 5 -19 1 -28 -10 -9 -11
-13 -12 -9 -4 4 8 -3 4 -15 -10 -12 -14 -19 -18 -15 -10 4 10 2 9 -8 -2 -8
-10 -17 -15 -20 -11 -4 3 -7 -1 -7 -11 0 -9 -4 -15 -8 -12 -5 3 -21 -6 -36
-19 -16 -14 -33 -22 -39 -18 -6 3 -7 1 -3 -5 4 -7 1 -12 -8 -12 -9 0 -16 -4
-16 -9 0 -5 -9 -13 -20 -16 -12 -4 -17 -11 -13 -18 4 -7 -2 -5 -12 3 -10 8
-16 11 -13 5 3 -5 0 -16 -8 -23 -8 -7 -14 -9 -14 -5 0 4 -7 -1 -15 -11 -8 -11
-15 -17 -15 -13 0 5 -6 2 -14 -5 -8 -7 -11 -17 -8 -23 3 -5 -3 -3 -13 5 -10 8
-16 10 -12 4 4 -7 -1 -18 -10 -25 -11 -10 -14 -10 -9 -2 5 9 2 11 -8 7 -9 -3
-14 -11 -13 -17 1 -6 -4 -11 -11 -12 -7 0 -17 -7 -22 -15 -5 -8 -10 -11 -10
-7 0 4 -11 -4 -25 -19 -14 -15 -25 -23 -25 -19 0 5 -10 -4 -23 -18 -12 -15
-31 -27 -40 -27 -10 0 -16 -3 -14 -7 3 -5 -1 -14 -9 -21 -8 -7 -14 -10 -14 -7
0 4 -7 0 -15 -9 -8 -8 -15 -21 -15 -28 0 -10 -3 -9 -10 2 -8 12 -10 10 -10
-10 0 -20 -2 -22 -10 -10 -8 13 -10 12 -10 -3 0 -10 -4 -16 -8 -13 -5 3 -16
-4 -25 -15 -9 -10 -14 -19 -12 -19 3 0 0 -6 -7 -14 -7 -8 -15 -14 -18 -13 -9
2 -115 -105 -113 -114 2 -4 -6 -11 -17 -14 -11 -4 -18 -11 -15 -16 4 -5 -1 -9
-10 -9 -9 0 -14 -4 -10 -9 3 -5 -4 -13 -16 -16 -11 -4 -18 -9 -15 -12 3 -3 -6
-15 -20 -26 -14 -10 -23 -26 -20 -33 3 -8 2 -13 -2 -11 -4 1 -22 -13 -39 -30
-18 -18 -30 -33 -27 -33 3 0 -12 -16 -33 -35 -21 -19 -34 -35 -29 -35 5 0 1
-9 -9 -20 -10 -11 -22 -17 -28 -13 -5 3 -7 1 -3 -5 3 -6 -1 -18 -10 -26 -8 -9
-12 -16 -7 -16 4 0 -3 -10 -17 -21 -14 -11 -18 -17 -10 -13 8 5 3 -7 -13 -25
-15 -18 -24 -38 -21 -43 5 -7 2 -8 -6 -3 -10 6 -12 4 -7 -9 4 -10 3 -15 -3
-11 -5 3 -16 -8 -25 -25 -8 -16 -12 -30 -8 -30 5 0 -5 -10 -22 -21 -16 -12
-21 -18 -11 -15 14 5 10 -2 -12 -24 -18 -17 -30 -36 -26 -42 4 -6 3 -9 -2 -6
-5 2 -43 -30 -84 -71 -41 -41 -68 -72 -60 -68 8 4 7 2 -3 -5 -34 -24 -60 -48
-52 -48 4 0 -10 -17 -31 -37 -21 -20 -38 -41 -36 -46 2 -5 -4 -7 -13 -4 -8 4
-15 2 -15 -4 0 -6 -16 -26 -35 -45 -19 -18 -35 -31 -35 -27 0 3 -9 -5 -21 -18
-11 -13 -26 -24 -32 -24 -7 -1 -11 -6 -10 -12 2 -7 -7 -15 -20 -19 -12 -4 -28
-15 -35 -25 -7 -11 -19 -19 -27 -19 -8 0 -19 -9 -25 -20 -6 -11 -15 -18 -20
-15 -5 3 -14 -4 -20 -15 -6 -11 -15 -18 -21 -15 -5 4 -9 -1 -9 -9 0 -9 -3 -15
-7 -15 -20 3 -34 -2 -28 -11 3 -5 -1 -10 -9 -10 -9 0 -16 -4 -16 -10 0 -5 -5
-10 -11 -10 -16 0 -39 -26 -31 -35 4 -5 2 -5 -4 -2 -6 4 -19 -2 -29 -13 -10
-11 -24 -20 -32 -20 -8 0 -11 -4 -8 -10 3 -5 -1 -10 -10 -10 -10 0 -13 -5 -9
-12 4 -6 3 -8 -4 -4 -6 3 -13 2 -17 -4 -4 -6 -11 -7 -17 -4 -6 4 -8 2 -5 -3 4
-6 -3 -19 -15 -29 -12 -11 -18 -13 -13 -5 6 10 4 12 -4 7 -7 -5 -10 -15 -7
-23 3 -8 1 -11 -4 -8 -13 8 -52 -19 -42 -30 4 -4 -1 -5 -10 -2 -10 4 -17 2
-15 -4 1 -6 -7 -16 -18 -22 -11 -7 -24 -17 -30 -23 -5 -6 -28 -23 -50 -38 -22
-14 -35 -26 -30 -26 5 0 0 -6 -10 -14 -11 -8 -23 -12 -27 -10 -7 5 -12 -10 -9
-28 0 -4 -7 -4 -16 -1 -11 4 -14 3 -9 -5 6 -10 -10 -17 -35 -14 -4 1 -6 -4 -5
-11 0 -7 -1 -12 -4 -12 -3 0 -20 -15 -38 -32 -17 -18 -34 -33 -37 -33 -3 0
-17 -11 -31 -25 -14 -14 -29 -25 -35 -25 -6 0 -7 -4 -4 -10 3 -5 0 -10 -8 -10
-8 0 -22 -11 -33 -24 -10 -14 -21 -23 -25 -20 -4 2 -22 -14 -40 -36 -18 -22
-39 -40 -46 -40 -7 0 -13 -7 -13 -16 0 -8 -5 -12 -10 -9 -6 3 -13 -1 -16 -9
-3 -9 -12 -16 -20 -16 -8 0 -13 -3 -12 -7 2 -5 -7 -18 -19 -30 -13 -13 -23
-21 -23 -18 0 3 -27 -22 -61 -55 -33 -33 -65 -57 -71 -54 -6 4 -9 3 -5 -2 9
-15 -20 -47 -35 -38 -7 4 -10 4 -6 0 9 -11 -14 -36 -26 -28 -5 3 -7 -2 -3 -11
4 -11 1 -17 -7 -17 -8 0 -16 -7 -20 -15 -3 -8 -13 -15 -22 -15 -10 0 -15 -3
-12 -6 8 -7 -34 -50 -44 -46 -8 2 -12 -13 -9 -30 0 -5 -3 -8 -8 -8 -15 0 -61
-46 -54 -53 3 -4 -4 -7 -17 -7 -13 0 -20 -3 -17 -7 4 -3 -6 -17 -21 -31 -15
-14 -26 -30 -24 -34 1 -4 -5 -8 -13 -8 -8 0 -15 -7 -15 -16 0 -8 -4 -13 -9 -9
-5 3 -12 -4 -16 -15 -4 -11 -10 -18 -15 -15 -4 3 -14 -8 -21 -24 -9 -20 -16
-26 -21 -18 -6 9 -8 8 -8 -2 0 -8 -13 -27 -30 -43 -16 -15 -30 -33 -30 -39 0
-5 -5 -7 -10 -4 -6 3 -10 2 -10 -4 0 -6 -11 -21 -24 -34 -14 -14 -22 -28 -19
-31 4 -3 -1 -6 -10 -6 -9 0 -17 -7 -17 -16 0 -8 -4 -12 -10 -9 -5 3 -10 0 -10
-8 0 -8 -7 -18 -16 -21 -9 -3 -12 -11 -8 -18 5 -7 2 -9 -9 -5 -12 4 -15 1 -12
-14 2 -11 0 -17 -4 -14 -5 3 -12 -2 -15 -11 -3 -8 -11 -12 -17 -8 -7 4 -9 3
-6 -3 3 -5 -5 -21 -19 -36 -13 -14 -24 -29 -24 -33 0 -4 -8 -13 -17 -21 -12
-10 -13 -12 -3 -8 12 5 12 4 -1 -7 -9 -7 -15 -21 -13 -31 1 -9 -2 -15 -7 -11
-5 3 -9 0 -9 -7 0 -6 -8 -18 -17 -26 -10 -8 -12 -12 -5 -8 20 10 14 -5 -14
-30 -15 -14 -24 -25 -20 -25 4 0 -7 -12 -23 -27 -49 -46 -59 -52 -65 -45 -4 3
-4 -1 0 -11 4 -13 2 -16 -9 -12 -9 4 -23 -4 -34 -19 -11 -14 -23 -22 -27 -19
-3 3 -6 -1 -6 -11 0 -9 -4 -14 -10 -11 -5 3 -10 1 -10 -4 0 -6 -7 -11 -16 -11
-9 0 -12 -5 -8 -12 5 -8 2 -9 -9 -5 -10 4 -16 2 -14 -4 1 -6 -7 -16 -18 -22
-11 -7 -28 -21 -37 -31 -10 -10 -18 -16 -18 -12 0 4 -6 1 -14 -6 -8 -7 -11
-17 -8 -23 3 -5 -2 -4 -12 4 -9 8 -16 10 -15 5 4 -22 -2 -32 -18 -30 -10 0
-18 -5 -19 -11 -3 -26 -5 -28 -14 -13 -8 13 -10 13 -10 -2 0 -10 -10 -20 -25
-24 -14 -3 -23 -10 -20 -14 2 -4 -11 -15 -30 -26 -18 -10 -31 -22 -29 -26 3
-5 2 -7 -3 -6 -4 1 -18 -3 -29 -10 -12 -6 -25 -8 -29 -4 -5 4 -5 -1 -2 -10 6
-16 1 -20 -20 -17 -3 0 -10 -6 -15 -15 -5 -9 -16 -16 -23 -16 -8 0 -15 -4 -15
-10 0 -5 -7 -10 -16 -10 -8 0 -12 -5 -9 -10 4 -6 3 -10 -2 -9 -22 4 -43 -2
-38 -11 3 -5 -1 -10 -10 -10 -8 0 -18 -7 -21 -15 -4 -8 -10 -13 -14 -10 -5 3
-11 1 -15 -5 -4 -6 -11 -7 -17 -4 -6 4 -8 2 -4 -4 3 -6 -3 -14 -15 -17 -11 -4
-30 -16 -41 -27 -11 -11 -26 -17 -33 -14 -8 3 -17 0 -21 -6 -5 -7 -2 -8 7 -4
8 4 5 1 -5 -8 -10 -8 -23 -13 -27 -10 -5 3 -9 0 -9 -6 0 -7 -7 -9 -16 -6 -9 3
-12 2 -9 -4 4 -6 -14 -20 -39 -31 -25 -11 -46 -24 -46 -29 0 -6 -7 -10 -15
-10 -8 0 -15 -5 -15 -11 0 -5 -4 -7 -10 -4 -5 3 -10 -2 -11 -12 0 -10 -3 -13
-6 -6 -3 8 -12 4 -27 -12 -13 -14 -27 -25 -31 -25 -4 0 -19 -9 -35 -20 -15
-11 -31 -16 -35 -12 -5 4 -6 3 -3 -3 3 -5 -8 -21 -25 -35 -17 -14 -28 -18 -23
-10 4 8 -1 5 -12 -7 -11 -12 -22 -19 -26 -16 -3 4 -6 1 -6 -6 0 -7 -5 -9 -12
-5 -8 5 -9 2 -5 -10 5 -14 3 -17 -8 -12 -9 3 -19 -3 -25 -15 -6 -11 -15 -17
-21 -14 -5 4 -9 1 -9 -5 0 -6 -4 -9 -9 -5 -6 3 -13 0 -18 -7 -4 -7 -20 -19
-35 -27 -15 -8 -25 -18 -22 -22 2 -4 -4 -6 -15 -4 -13 2 -22 -3 -26 -16 -4
-11 -10 -17 -15 -14 -5 3 -15 -1 -23 -9 -8 -8 -17 -12 -21 -9 -3 4 -6 1 -6 -5
0 -7 -9 -12 -20 -12 -20 0 -27 -14 -12 -23 4 -2 2 -2 -5 -1 -7 2 -19 -3 -27
-11 -7 -8 -16 -11 -20 -8 -3 3 -8 -2 -12 -11 -3 -9 -11 -16 -18 -16 -6 0 -18
-9 -26 -19 -7 -11 -18 -17 -24 -14 -5 4 -7 -1 -3 -11 4 -10 3 -15 -3 -11 -6 3
-10 1 -10 -4 0 -6 -7 -11 -17 -11 -9 0 -14 -3 -11 -6 7 -7 -39 -54 -53 -54 -6
0 -7 -4 -4 -10 3 -5 1 -10 -5 -10 -6 0 -8 -5 -5 -10 4 -6 2 -9 -3 -8 -11 3
-52 -40 -52 -54 0 -5 -4 -6 -10 -3 -5 3 -10 1 -10 -5 0 -6 -5 -8 -12 -4 -9 5
-9 2 1 -9 11 -15 11 -17 -1 -17 -8 0 -23 -10 -34 -22 l-19 -23 25 19 c14 11 5
0 -20 -25 -34 -33 -45 -52 -46 -76 0 -17 4 -30 8 -27 7 5 12 -10 9 -29 0 -4 4
-6 10 -5 6 2 12 -9 13 -24 1 -14 -1 -25 -5 -22 -4 2 -9 -3 -13 -11 -3 -8 -12
-15 -19 -15 -8 0 -24 -9 -37 -20 -13 -11 -32 -20 -42 -20 -11 0 -16 -4 -13
-10 5 -9 -15 -15 -37 -11 -4 0 -5 -6 -2 -14 4 -10 0 -13 -15 -10 -13 2 -18 -1
-15 -10 4 -9 0 -12 -14 -8 -14 3 -22 -1 -27 -16 -3 -12 -10 -19 -14 -16 -5 2
-20 -6 -35 -20 -14 -13 -26 -22 -26 -20 0 2 -15 -11 -34 -30 -19 -18 -36 -31
-39 -29 -3 3 -17 -7 -31 -21 -15 -14 -31 -23 -38 -19 -6 4 -8 3 -5 -2 3 -6
-12 -21 -34 -34 -21 -14 -39 -29 -39 -34 0 -5 -3 -7 -6 -3 -3 3 -24 -12 -45
-33 -35 -34 -40 -45 -38 -79 2 -22 7 -39 13 -38 5 1 15 -8 21 -20 7 -13 15
-20 18 -16 4 3 7 1 7 -5 0 -7 9 -12 21 -12 13 0 18 -4 13 -12 -5 -8 -2 -9 9
-5 10 3 17 2 17 -4 0 -6 4 -7 10 -4 5 3 10 1 10 -5 0 -6 5 -8 10 -5 6 3 10 2
10 -4 0 -5 9 -8 20 -6 12 2 20 -2 20 -10 0 -8 6 -12 14 -9 8 3 17 0 21 -5 3
-6 12 -8 18 -5 7 4 9 4 5 -1 -4 -4 -2 -15 5 -23 10 -13 9 -14 -1 -8 -12 7 -12
4 -1 -15 7 -13 12 -28 11 -32 -1 -5 2 -6 6 -3 5 3 18 -5 28 -19 13 -17 20 -21
26 -12 5 8 8 7 8 -4 0 -12 8 -16 30 -14 17 1 30 -2 30 -7 0 -5 10 -6 21 -3 14
5 19 3 15 -3 -3 -6 -1 -14 5 -18 7 -4 10 -3 7 2 -10 16 16 32 29 18 7 -6 9
-15 5 -20 -4 -4 -1 -4 6 0 7 5 11 15 7 23 -4 13 -3 14 9 4 8 -7 19 -10 25 -7
5 3 12 0 14 -6 4 -10 6 -10 6 0 1 10 6 10 22 1 15 -8 19 -8 15 0 -4 7 2 11 16
11 72 1 87 3 82 11 -3 5 2 6 11 3 8 -4 23 0 32 7 14 12 16 12 8 -1 -6 -12 -5
-12 5 -3 7 6 19 9 26 6 8 -3 14 0 14 5 0 7 11 8 31 2 26 -8 30 -7 25 6 -4 10
-2 13 7 7 6 -4 23 -9 35 -11 17 -2 22 1 16 10 -4 7 3 4 16 -7 13 -11 20 -14
16 -7 -5 9 3 11 33 9 23 -2 46 0 53 4 7 4 17 5 23 1 16 -10 34 -11 41 -1 3 5
10 9 15 9 6 0 7 -5 3 -11 -4 -8 -1 -8 13 -1 10 6 31 9 46 8 14 -2 24 0 22 4
-3 4 5 10 17 13 13 4 26 1 30 -6 6 -9 8 -9 8 1 0 6 7 12 16 12 8 0 13 4 10 9
-3 4 2 8 12 8 40 0 53 4 47 13 -4 6 -3 10 2 9 22 -4 43 2 57 17 10 9 16 11 16
4 0 -7 7 -5 16 4 8 9 20 14 25 11 5 -4 9 1 9 9 0 10 6 13 15 10 8 -4 15 -1 15
6 0 6 5 8 10 5 6 -3 10 -1 10 4 0 6 3 10 8 10 18 -3 32 2 46 17 12 12 16 12
16 2 1 -7 9 -3 20 11 11 13 20 18 20 12 0 -7 5 -9 10 -6 6 4 8 11 5 16 -4 5 5
9 19 9 14 0 26 5 26 10 0 6 9 10 20 10 10 0 23 6 27 13 4 6 15 12 23 12 8 0
14 6 12 14 -2 8 3 11 12 8 9 -4 20 1 25 11 6 9 11 14 11 9 0 -4 18 4 39 17 21
14 41 23 43 20 3 -2 11 3 19 13 12 14 12 16 0 8 -9 -5 -12 -4 -8 3 4 5 16 8
27 5 12 -3 22 1 26 11 3 9 12 16 18 16 7 0 22 9 34 20 12 12 22 17 22 13 0 -4
7 1 15 11 11 14 15 16 15 5 1 -8 7 -3 15 11 8 14 14 19 15 12 0 -10 3 -10 14
0 8 7 11 17 8 22 -3 5 0 6 7 2 6 -4 18 0 27 8 8 9 22 16 30 16 8 0 12 5 9 10
-3 6 3 10 15 10 11 0 23 7 26 15 4 8 14 15 24 15 10 0 23 7 30 15 7 8 19 15
27 15 8 0 11 5 8 10 -3 6 1 10 10 10 9 0 13 4 10 10 -3 6 1 7 9 4 9 -3 16 -1
16 6 0 6 5 8 10 5 6 -3 13 0 16 9 3 8 12 12 20 9 8 -3 14 0 14 6 0 6 7 11 16
11 10 0 14 6 11 14 -4 10 0 12 14 9 10 -3 19 0 19 6 0 6 9 11 20 11 11 0 23 7
26 15 4 8 10 12 16 9 5 -3 17 4 27 15 10 12 25 21 34 21 9 0 20 7 25 16 5 9
12 15 15 15 23 -3 37 0 33 8 -3 5 8 14 24 21 17 7 30 18 30 24 0 6 5 4 10 -4
8 -13 10 -12 10 3 0 10 5 15 10 12 6 -3 10 -1 10 4 0 6 7 11 15 11 8 0 15 5
15 11 0 5 5 7 10 4 6 -3 10 -1 10 6 0 7 3 10 6 7 3 -3 17 5 31 18 14 13 29 21
34 18 5 -3 9 2 9 11 0 9 4 13 10 10 13 -8 52 19 42 30 -4 4 1 5 10 2 10 -4 18
-2 18 3 0 5 9 12 20 15 11 4 17 11 14 17 -4 6 -2 8 4 4 6 -3 13 -2 17 4 4 6
10 8 15 5 4 -3 10 2 13 10 4 8 15 12 26 10 13 -2 25 3 31 15 5 10 23 23 40 28
16 6 30 16 30 21 0 6 7 8 15 5 8 -4 15 -1 15 5 0 6 9 11 21 11 13 0 18 4 13
12 -5 7 -2 9 9 5 9 -3 18 1 21 10 4 9 9 13 12 10 4 -3 13 1 21 9 8 8 19 12 24
8 5 -3 12 2 15 10 3 9 15 16 26 16 12 0 17 4 12 12 -5 7 -2 9 9 5 9 -3 18 0
21 9 3 9 10 13 15 10 5 -3 12 1 15 10 3 8 10 12 16 9 5 -3 10 -1 10 4 0 6 7
11 16 11 9 0 12 5 8 12 -5 8 -2 9 9 5 10 -4 17 -1 17 6 0 8 4 6 10 -3 5 -8 10
-10 10 -4 0 7 25 10 67 9 40 -1 71 2 75 9 5 8 8 7 8 -2 0 -9 5 -10 18 -4 9 5
25 8 35 7 9 -2 15 1 11 6 -3 5 1 9 8 10 32 2 53 9 56 18 2 6 8 11 13 11 6 0 7
-6 3 -12 -6 -10 -5 -10 8 -1 8 7 18 10 22 6 4 -4 4 1 0 11 -5 14 -4 17 5 12 6
-4 18 -2 26 4 8 6 18 9 24 6 5 -3 12 1 15 10 3 8 10 12 16 9 5 -3 10 -2 10 4
0 6 7 8 15 5 8 -4 17 1 21 10 3 9 10 16 16 16 5 0 6 -5 3 -11 -4 -6 2 -5 13 2
12 7 19 16 17 19 -2 3 4 6 13 7 39 3 58 9 70 21 8 7 18 10 23 7 5 -4 9 -1 9 6
0 7 3 9 7 6 3 -4 12 -2 19 3 6 6 18 9 25 8 8 -2 13 3 11 11 -3 12 0 12 12 1
12 -9 16 -9 16 0 0 6 6 10 13 7 6 -2 18 3 25 12 8 10 11 10 6 2 -5 -10 -3 -12
6 -6 25 15 60 11 66 -7 3 -10 10 -16 15 -13 5 4 9 2 9 -2 0 -5 14 -9 30 -8 17
0 30 3 30 7 0 5 7 8 16 8 9 0 12 5 8 13 -5 7 0 6 11 -3 10 -8 16 -10 13 -5 -3
6 0 16 8 23 8 7 14 10 14 8 0 -3 16 4 36 15 20 11 43 18 50 15 8 -3 13 0 11 7
-1 7 10 12 29 12 23 0 30 4 26 14 -4 10 0 13 16 9 12 -4 25 -2 28 3 3 5 10 7
15 4 5 -4 9 -1 9 5 0 7 6 10 14 7 8 -3 17 1 20 9 3 9 11 12 16 9 6 -4 17 -1
25 5 8 6 20 8 26 4 8 -4 9 -3 5 4 -4 7 -1 12 9 12 9 0 13 4 10 10 -3 6 1 7 9
4 9 -3 16 -1 16 6 0 6 5 8 10 5 6 -3 10 -1 10 4 0 6 3 10 8 9 4 -1 16 2 27 8
27 13 49 11 69 -5 11 -9 16 -10 16 -2 0 7 5 9 10 6 6 -4 7 -11 4 -17 -4 -6 -2
-8 4 -4 6 3 13 2 17 -4 9 -15 28 -12 19 3 -4 6 2 3 14 -7 22 -19 31 -43 12
-31 -5 3 -10 1 -10 -5 0 -6 -5 -8 -10 -5 -6 4 -16 2 -23 -3 -7 -6 -16 -10 -22
-10 -5 0 -11 -6 -14 -13 -2 -7 1 -9 8 -5 6 4 11 3 11 -3 0 -5 9 -13 20 -16 11
-3 20 -14 20 -22 0 -9 3 -13 7 -10 3 4 19 -6 34 -22 15 -16 30 -27 33 -23 3 3
6 -3 6 -14 0 -16 2 -17 10 -4 9 13 10 13 11 0 1 -8 1 -18 0 -22 0 -4 8 -5 18
-3 11 2 22 -3 25 -11 3 -8 12 -14 21 -14 8 0 15 -5 15 -11 0 -5 5 -7 11 -3 6
3 15 0 20 -7 7 -12 9 -12 9 0 0 11 3 11 15 1 8 -7 15 -9 15 -5 0 4 6 2 14 -4
10 -9 16 -9 21 -1 4 7 11 8 18 2 7 -5 23 -8 37 -7 14 1 34 -5 44 -14 11 -9 16
-10 12 -4 -5 9 -2 11 8 7 9 -3 16 -10 16 -16 0 -5 5 -6 10 -3 6 3 10 -1 10
-10 0 -9 4 -14 9 -11 5 4 11 2 13 -4 1 -5 22 -11 46 -12 23 -1 42 -4 42 -8 0
-9 51 -32 58 -26 3 3 11 -2 18 -12 9 -11 13 -12 14 -4 0 10 5 10 20 2 15 -8
20 -8 20 1 0 9 3 9 14 0 10 -8 16 -9 21 -1 3 6 11 8 16 5 5 -4 9 -2 9 3 0 5
13 8 30 7 16 -1 27 1 25 5 -2 3 5 12 17 19 16 10 19 10 12 -1 -6 -10 -5 -11 8
-1 8 7 19 9 23 5 5 -4 5 -1 1 6 -7 12 5 16 33 13 7 -2 10 2 7 8 -7 11 12 26
21 17 3 -3 6 -30 6 -61 0 -40 5 -59 19 -71 10 -10 18 -23 18 -31 0 -8 5 -11
10 -8 6 3 10 -1 10 -9 0 -8 5 -18 12 -22 7 -5 9 -2 4 7 -4 8 0 5 9 -6 9 -11
21 -19 26 -17 6 1 8 -2 4 -8 -3 -5 -1 -10 5 -10 6 0 8 -4 5 -10 -6 -9 8 -14
28 -11 4 0 7 -6 7 -15 0 -8 4 -13 9 -10 5 3 11 -1 15 -9 3 -8 1 -15 -4 -15 -6
0 -10 -7 -10 -16 0 -8 -4 -12 -10 -9 -5 3 -10 -1 -10 -9 0 -9 -6 -16 -13 -16
-8 0 -14 -6 -14 -14 0 -9 10 -14 26 -14 51 1 59 -2 56 -19 -2 -10 -4 -22 -4
-27 -1 -4 -8 -5 -17 -2 -8 3 -12 2 -9 -4 3 -6 1 -10 -4 -10 -6 0 -11 -7 -11
-15 0 -8 5 -15 11 -15 8 0 8 -5 -1 -15 -10 -12 -10 -15 1 -15 11 0 11 -2 -1
-10 -13 -8 -13 -10 2 -10 15 0 31 -30 33 -62 0 -3 4 -10 9 -15 5 -5 6 -2 1 6
-5 9 -4 12 3 7 6 -4 9 -13 5 -21 -3 -8 0 -15 7 -15 6 0 8 -5 5 -10 -4 -6 1
-22 10 -37 12 -17 13 -23 4 -18 -11 6 -12 5 -1 -6 6 -7 12 -21 12 -32 0 -11 4
-15 12 -11 8 5 9 2 4 -11 -4 -11 0 -26 11 -38 10 -11 12 -17 6 -13 -7 4 -13 3
-13 -2 0 -6 8 -13 17 -16 15 -6 15 -8 3 -16 -12 -8 -12 -10 3 -16 9 -3 15 -9
12 -13 -2 -4 2 -20 10 -35 10 -18 10 -24 2 -20 -7 4 -3 -2 7 -14 11 -12 14
-22 8 -22 -6 0 -9 -7 -6 -15 4 -8 10 -13 15 -10 4 3 6 -4 4 -15 -2 -11 1 -20
6 -20 6 0 7 -4 4 -10 -3 -5 2 -22 12 -37 10 -15 12 -24 6 -20 -7 5 -13 4 -13
-2 0 -6 4 -11 9 -11 6 0 8 -9 6 -20 -2 -11 1 -20 7 -20 6 0 8 -11 6 -25 -3
-14 0 -29 6 -33 6 -4 12 -16 13 -27 4 -37 9 -53 21 -68 9 -10 10 -17 2 -22 -6
-3 -7 -12 -3 -18 4 -7 6 -20 5 -29 -2 -10 2 -18 9 -18 6 0 9 -8 6 -20 -3 -11
0 -20 5 -20 6 0 5 -7 -2 -16 -8 -8 -9 -14 -4 -13 21 4 26 -2 14 -16 -9 -11 -9
-15 -1 -15 7 0 9 -4 6 -10 -3 -5 0 -10 7 -10 9 0 9 -3 -2 -10 -9 -6 -10 -10
-3 -10 6 0 10 -9 8 -20 -2 -11 0 -20 4 -20 4 0 8 -7 8 -15 0 -8 -5 -15 -11
-15 -5 0 -1 -7 10 -15 14 -11 16 -15 4 -15 -12 0 -10 -4 4 -15 11 -8 15 -15
10 -15 -6 0 -11 -7 -11 -15 0 -8 4 -15 9 -15 5 0 4 -9 -2 -19 -7 -13 -16 -17
-31 -14 -12 4 -20 2 -17 -3 4 -5 -11 -8 -33 -8 -21 1 -39 -2 -39 -7 0 -5 -11
-9 -25 -9 -14 0 -25 -5 -25 -11 0 -5 -4 -7 -10 -4 -5 3 -10 1 -10 -5 0 -6 -4
-9 -9 -6 -4 3 -23 -8 -41 -24 -19 -17 -38 -30 -44 -30 -6 0 -4 -5 4 -10 13 -8
12 -10 -2 -10 -10 0 -18 -7 -18 -15 0 -8 -4 -15 -8 -15 -5 0 -9 -7 -10 -15 -1
-8 -3 -22 -4 -30 -1 -8 -5 -15 -10 -15 -5 0 -6 -5 -3 -10 4 -6 1 -17 -5 -25
-10 -12 -9 -15 6 -16 11 0 13 -3 7 -6 -9 -3 -10 -10 -3 -24 9 -16 8 -17 -7
-12 -15 6 -16 4 -6 -9 7 -8 10 -18 6 -21 -3 -4 1 -7 11 -7 10 0 14 -5 10 -12
-4 -7 -3 -8 5 -4 6 4 9 11 7 15 -3 4 10 36 27 72 31 63 68 109 91 114 6 1 19
5 28 9 9 4 22 5 28 1 5 -3 10 -2 10 2 0 5 11 9 25 9 14 0 25 -4 25 -9 0 -4 5
-5 10 -2 16 10 12 -9 -7 -34 -39 -51 -123 -128 -123 -113 0 4 -4 2 -8 -3 -7
-11 -72 -59 -82 -61 -22 -5 -70 -30 -70 -36 0 -4 -5 -8 -11 -8 -5 0 -7 5 -4
10 8 13 -1 13 -27 -1 -11 -6 -18 -7 -15 -2 3 5 -3 9 -13 9 -10 0 -16 -4 -14
-8 3 -4 0 -8 -5 -8 -6 0 -11 6 -11 13 0 9 -3 8 -9 -2 -6 -9 -10 -10 -12 -2 -3
9 -12 9 -32 2 -17 -7 -26 -7 -22 -1 3 5 -9 8 -30 6 -20 -1 -35 2 -35 8 0 6 -5
4 -10 -4 -5 -8 -10 -10 -10 -4 0 6 -15 10 -35 9 -21 -2 -35 2 -35 9 0 6 -4 5
-9 -3 -8 -12 -12 -12 -25 -2 -11 9 -16 10 -16 2 0 -6 -3 -10 -7 -10 -25 4 -43
-2 -37 -13 5 -8 0 -9 -14 -6 -14 4 -22 2 -22 -7 0 -7 -7 -15 -15 -19 -8 -3
-14 -11 -13 -18 2 -7 -5 -12 -14 -10 -10 2 -18 -2 -18 -8 0 -6 -4 -8 -10 -5
-5 3 -10 1 -10 -4 0 -6 -7 -11 -15 -11 -8 0 -15 -4 -15 -8 0 -5 -11 -14 -25
-20 -19 -9 -25 -19 -25 -42 0 -22 -4 -29 -12 -24 -9 5 -9 2 1 -9 9 -11 10 -17
2 -17 -6 0 -11 -5 -11 -11 0 -5 4 -8 9 -5 4 3 6 -6 3 -21 -4 -22 -2 -25 12
-20 10 4 23 7 29 7 8 0 7 3 -1 9 -10 6 -5 11 18 19 18 7 29 16 25 22 -4 6 -3
10 2 9 4 -1 17 -1 28 0 16 1 17 3 6 10 -10 7 -1 11 32 16 26 4 45 10 43 14 -3
4 4 8 15 8 13 1 17 -2 12 -10 -4 -7 0 -6 10 2 9 7 17 10 17 6 0 -4 8 -1 17 6
9 8 14 9 10 3 -4 -7 0 -15 9 -18 9 -3 12 -2 9 5 -4 6 4 8 22 5 15 -2 34 -5 41
-5 6 -1 12 -8 12 -16 0 -8 5 -15 10 -15 6 0 10 -9 10 -20 0 -24 44 -76 71 -83
13 -3 17 -1 12 6 -5 9 -3 9 8 1 20 -15 81 -11 109 9 14 9 20 17 15 17 -5 0 0
7 11 16 10 8 12 12 4 8 -8 -4 0 7 19 25 19 18 48 35 65 38 17 3 36 9 41 14 6
4 27 6 48 5 20 -1 37 2 37 7 0 5 6 7 13 4 6 -2 27 5 45 15 18 10 37 16 41 14
4 -3 13 4 21 14 8 10 18 16 24 13 5 -4 7 1 2 12 -5 14 -3 15 6 7 9 -7 17 -6
26 4 7 8 9 14 5 14 -4 0 7 9 25 20 37 23 67 27 56 8 -6 -10 -5 -10 7 -1 12 10
18 10 29 0 10 -10 11 -9 5 3 -8 13 -7 13 10 0 10 -8 20 -14 22 -12 8 6 54 1
49 -6 -2 -4 7 -9 22 -10 14 -1 29 -8 34 -15 4 -6 8 -8 8 -4 0 4 15 -7 34 -25
18 -18 42 -38 52 -45 10 -6 18 -15 17 -20 -1 -5 6 -10 15 -11 48 -5 63 -10 83
-28 12 -10 19 -14 16 -7 -8 13 38 12 51 -2 4 -4 1 -5 -7 0 -10 6 -12 4 -7 -4
6 -9 11 -9 22 0 11 9 14 8 14 -2 1 -9 5 -8 15 5 8 11 15 15 15 9 0 -6 10 -9
23 -8 12 1 32 -5 45 -12 13 -8 30 -12 38 -9 8 3 17 -1 20 -9 4 -8 10 -12 15
-9 5 3 9 1 9 -3 0 -5 9 -9 19 -9 11 0 17 4 15 8 -3 4 -2 8 3 9 4 0 16 2 26 4
9 2 17 0 17 -4 0 -4 6 -8 13 -8 6 0 21 -4 31 -9 15 -6 17 -4 11 7 -7 11 -6 12
6 3 8 -6 32 -10 54 -9 22 2 43 -2 47 -9 5 -7 8 -5 8 6 0 9 9 20 20 23 11 3 20
13 20 21 0 8 4 14 9 14 5 0 8 12 5 26 -3 16 -1 23 6 19 5 -3 10 -2 10 3 0 15
54 0 71 -19 12 -14 18 -16 28 -6 10 9 12 9 9 -3 -2 -8 2 -14 7 -13 6 0 16 -5
23 -13 7 -8 10 -14 7 -14 -4 0 0 -7 9 -15 8 -8 21 -15 29 -15 20 0 16 53 -7
100 -13 27 -14 31 -1 16 8 -11 15 -16 15 -11 0 11 -79 83 -85 77 -3 -3 -5 0
-5 6 0 7 -7 12 -15 12 -9 0 -18 6 -21 14 -3 9 -12 12 -21 9 -11 -4 -14 -2 -9
5 6 11 -5 16 -26 13 -11 -1 1 44 12 47 6 2 7 9 3 15 -4 7 2 5 12 -3 15 -12 17
-12 10 -1 -6 11 -4 13 9 8 9 -4 15 -3 12 2 -9 14 31 20 45 7 9 -8 10 -8 5 1
-9 17 9 17 26 0 7 -8 19 -12 26 -9 6 2 12 -1 12 -8 0 -6 5 -8 10 -5 6 3 10 1
10 -5 0 -6 5 -8 10 -5 6 3 10 -1 10 -9 0 -9 7 -16 16 -16 9 0 12 -5 8 -12 -5
-10 -4 -10 6 -1 11 10 11 18 2 35 -6 13 -14 34 -18 48 -4 14 -14 31 -23 38 -9
8 -10 10 -2 7 9 -5 8 1 -4 19 -10 14 -23 26 -31 26 -7 0 -16 5 -20 12 -5 7 -3
8 7 3 12 -7 12 -6 1 7 -16 21 7 45 26 26 8 -8 12 -8 12 -1 0 6 13 9 31 7 16
-2 28 0 25 5 -3 4 6 6 21 3 15 -3 24 -1 20 5 -3 5 4 9 16 8 22 -2 68 34 60 48
-2 4 1 7 8 7 8 0 6 7 -5 19 -12 13 -14 21 -6 26 5 3 8 11 4 16 -3 5 -2 9 3 8
28 -5 53 2 47 13 -6 11 -4 11 7 1 7 -7 28 -13 47 -13 19 0 31 -4 27 -10 -5 -9
-1 -11 20 -10 3 1 12 -5 20 -12 34 -31 43 -36 49 -31 3 4 6 -5 6 -18 0 -18 3
-20 9 -10 7 11 10 9 16 -8 6 -19 9 -20 23 -9 12 10 14 10 8 1 -4 -7 -3 -13 2
-13 11 0 8 54 -4 84 -5 14 -4 17 5 11 10 -6 11 -3 2 14 -8 14 -8 21 -1 21 7 0
8 6 0 19 -13 25 -13 34 1 25 8 -4 8 0 0 15 -9 17 -9 20 3 15 8 -3 17 -1 21 5
4 8 12 8 27 0 18 -9 24 -8 35 7 10 13 13 14 13 3 0 -12 2 -12 9 0 7 11 11 10
20 -5 6 -12 11 -14 11 -5 0 11 3 11 17 0 15 -12 16 -12 8 1 -6 12 -5 13 6 2 7
-6 21 -12 31 -12 10 0 18 -4 18 -10 0 -5 11 -10 25 -10 14 0 25 -5 25 -11 0
-6 7 -9 15 -5 9 3 15 0 15 -9 0 -17 18 -19 40 -5 11 7 11 10 2 10 -7 0 -11 4
-7 9 3 5 -4 13 -16 16 -17 6 -19 9 -8 16 11 7 11 9 1 9 -7 0 -32 20 -57 44
-24 24 -46 42 -49 38 -3 -3 -6 0 -6 7 0 7 -4 9 -10 6 -5 -3 -10 -1 -10 6 0 7
-3 9 -7 6 -3 -4 -17 0 -31 9 -13 9 -22 12 -19 7 4 -5 0 -10 -8 -10 -8 0 -12 4
-10 8 3 4 -2 9 -10 13 -8 3 -15 0 -15 -6 0 -7 -4 -7 -13 1 -10 8 -17 7 -27 -2
-8 -8 -11 -8 -7 -1 4 7 0 15 -9 18 -8 3 -13 2 -9 -3 3 -6 -24 -8 -65 -6 -46 3
-69 1 -65 -6 8 -12 -18 -7 -27 6 -5 6 -8 5 -8 -2 0 -7 -7 -10 -17 -6 -10 4
-14 2 -10 -4 4 -6 -1 -10 -11 -10 -35 0 -43 -3 -36 -15 5 -8 2 -9 -9 -5 -9 3
-19 2 -22 -4 -4 -5 -11 -6 -17 -3 -7 4 -8 2 -4 -4 4 -7 1 -12 -9 -12 -9 0 -14
-4 -11 -9 4 -5 -2 -8 -11 -6 -10 1 -25 -4 -35 -12 -11 -10 -18 -11 -23 -3 -5
8 -10 8 -20 0 -8 -7 -19 -9 -25 -5 -5 3 -10 2 -10 -2 0 -13 -40 -11 -40 2 0 5
-7 1 -15 -9 -9 -11 -15 -14 -15 -7 0 8 -12 12 -32 11 -18 -1 -37 -1 -43 0 -5
1 -13 2 -17 1 -5 0 -8 2 -8 6 0 7 -46 14 -107 16 -12 1 -20 4 -17 8 2 4 -5 9
-16 12 -11 3 -18 1 -14 -4 8 -13 -10 -11 -24 3 -9 9 -12 9 -12 -3 -1 -10 -4
-10 -14 4 -17 22 -26 23 -37 5 -7 -10 -9 -9 -9 4 0 11 -5 15 -15 12 -8 -4 -22
-1 -30 6 -8 6 -19 9 -25 5 -5 -3 -10 -1 -10 5 0 6 -4 9 -9 6 -5 -3 -14 1 -21
9 -7 8 -16 12 -21 9 -5 -3 -9 0 -9 5 0 6 -8 11 -17 11 -9 0 -13 3 -10 6 4 4
-3 15 -15 25 -11 11 -17 19 -13 19 4 0 -2 8 -13 19 -24 20 -30 36 -9 26 6 -4
-2 6 -19 21 -30 29 -34 34 -34 54 0 6 -7 10 -15 10 -8 0 -14 3 -14 7 3 20 -2
44 -8 40 -10 -6 -27 13 -31 33 -2 8 -8 17 -13 18 -5 2 -7 8 -3 13 3 5 0 9 -6
9 -6 0 -8 4 -5 10 3 6 -1 10 -10 10 -9 0 -14 4 -10 10 3 5 -3 18 -15 30 -11
11 -21 23 -22 28 -2 4 -5 6 -8 5 -3 -1 -7 7 -7 18 -1 11 -12 29 -25 40 -13 11
-17 18 -10 14 6 -3 12 -1 12 4 0 6 -5 11 -12 11 -6 0 -8 3 -5 7 4 3 -2 12 -13
20 -12 8 -17 20 -13 30 4 10 2 14 -4 10 -6 -4 -13 0 -16 7 -3 8 -1 17 6 20 7
2 4 5 -5 5 -10 1 -19 6 -19 11 -1 6 -2 16 -3 23 -1 6 -7 11 -13 10 -7 -2 -10
6 -8 17 2 11 -1 20 -6 20 -6 0 -7 5 -4 10 3 6 1 10 -5 10 -7 0 -10 7 -7 14 4
9 -2 17 -13 21 -10 3 -22 14 -25 24 -8 27 -41 62 -49 54 -4 -4 -4 1 0 12 6 15
4 17 -10 12 -9 -4 -15 -3 -11 2 3 6 -3 14 -12 20 -10 6 -14 11 -9 11 6 0 0 9
-12 21 -12 11 -20 24 -17 30 4 5 1 9 -5 9 -6 0 -10 10 -9 23 2 12 0 28 -4 35
-5 7 -2 14 7 18 9 3 12 12 9 21 -4 11 -2 14 5 9 7 -4 12 -1 12 8 0 9 5 16 10
16 6 0 10 7 10 15 0 9 6 12 18 8 9 -3 14 -3 10 2 -10 10 22 34 46 35 12 0 16
5 12 15 -4 13 -2 14 14 5 16 -8 20 -8 18 2 -2 7 3 12 10 10 6 -1 12 3 12 9 0
5 5 7 10 4 6 -3 10 -1 10 4 0 6 3 10 8 10 21 -4 32 2 26 13 -5 8 -2 9 9 5 10
-4 16 -2 14 5 -1 7 3 12 10 13 6 0 21 11 32 24 12 13 21 20 21 16 0 -4 9 2 20
15 11 13 20 27 20 31 0 5 7 6 15 2 9 -3 15 -2 14 3 -3 20 2 35 10 30 5 -3 12
1 15 10 3 8 10 12 16 9 5 -3 10 0 10 7 0 9 3 9 10 -2 9 -13 10 -13 10 0 0 13
1 13 10 0 6 -10 10 -11 10 -2 0 6 3 12 8 11 15 -2 52 14 52 22 0 5 7 9 15 9 8
0 26 11 40 25 14 14 25 22 25 18 0 -4 5 0 11 10 6 9 14 15 20 12 5 -4 12 1 15
9 3 9 10 13 15 10 5 -3 9 0 9 6 0 6 5 8 12 4 7 -4 8 -3 4 4 -4 7 3 17 18 24
14 6 26 18 26 25 0 8 4 12 9 9 5 -3 12 1 15 10 3 8 10 12 16 9 5 -3 10 -2 10
4 0 5 12 23 27 38 14 15 23 22 18 14 -5 -9 -4 -12 3 -7 6 4 8 14 5 23 -5 12
-2 15 10 10 9 -3 17 -2 17 3 0 5 13 23 30 40 17 17 30 35 30 41 0 6 3 8 8 6 9
-5 42 30 35 37 -4 3 1 6 10 6 10 0 17 7 17 16 0 8 3 13 8 11 4 -3 13 1 20 9 7
8 9 14 5 14 -4 0 9 11 28 26 19 14 33 32 31 39 -2 10 3 13 13 9 9 -4 15 -2 13
4 -2 5 8 19 21 31 13 12 20 21 16 21 -5 0 12 20 38 44 26 24 47 49 47 55 0 7
5 9 10 6 9 -6 14 8 11 28 -1 5 2 6 6 4 5 -2 17 5 28 16 12 11 14 17 5 13 -9
-5 -8 -2 2 7 10 8 15 17 11 20 -3 4 1 7 10 7 16 0 22 12 18 33 -1 5 3 6 8 3
12 -8 34 21 26 34 -4 6 -3 10 2 9 17 -3 36 1 30 7 -6 6 1 17 44 63 14 15 23
34 21 41 -3 7 0 10 7 6 6 -4 15 3 21 18 5 14 12 26 15 26 4 0 3 -6 -1 -12 -4
-8 -3 -10 2 -5 5 5 9 12 9 15 2 20 17 52 24 48 3 -3 18 12 31 32 14 20 31 43
37 50 7 7 13 18 13 23 0 6 5 7 12 3 7 -4 8 -3 4 4 -4 6 2 19 14 29 11 10 20
23 20 30 0 6 9 19 21 27 12 8 18 19 14 25 -3 6 1 11 10 11 9 0 13 5 10 10 -3
6 1 13 9 16 9 3 13 10 10 15 -3 5 2 9 11 9 9 0 14 4 11 8 -3 5 9 24 27 42 18
19 26 30 20 26 -20 -12 -15 1 12 30 14 15 23 34 20 42 -4 12 -3 13 10 2 13
-10 15 -9 15 9 0 11 5 21 11 21 5 0 8 4 5 9 -3 5 1 11 9 15 8 3 15 12 15 20 0
7 7 16 15 20 8 3 14 10 13 15 -2 5 6 17 17 26 11 9 13 14 5 10 -10 -4 -9 -2 2
8 10 8 15 17 11 20 -3 4 1 7 10 7 9 0 17 5 17 11 0 5 -6 7 -12 4 -7 -4 -5 0 5
8 9 8 17 20 17 26 0 7 5 9 10 6 9 -5 15 16 11 38 -1 5 3 6 8 3 5 -4 12 3 16
14 4 11 11 18 16 14 6 -3 9 2 7 12 -2 13 2 18 12 16 8 -2 12 0 8 4 -4 4 -2 14
5 22 10 13 9 14 -2 7 -10 -5 -12 -4 -7 3 4 7 15 12 24 12 15 0 15 2 2 10 -13
9 -7 14 13 11 6 -1 11 23 8 42 -1 5 3 6 9 2 5 -3 10 -1 10 6 0 6 8 18 18 26 9
8 11 11 4 8 -11 -6 -11 -3 -1 13 7 12 17 18 23 15 5 -3 6 -1 2 5 -3 6 1 18 10
26 8 9 13 16 9 16 -4 0 1 7 9 16 9 8 13 20 10 26 -4 7 -2 8 4 4 11 -6 16 6 13
27 0 4 7 7 17 7 14 0 15 2 2 10 -8 5 -10 10 -4 10 6 0 17 13 24 30 7 16 17 27
23 23 5 -3 7 -1 3 5 -3 6 1 17 10 26 8 9 13 20 10 25 -3 5 1 11 9 15 8 3 15
14 15 24 0 10 9 28 19 39 11 12 17 24 14 27 -4 3 -1 6 6 6 7 0 10 4 6 9 -3 6
3 14 12 20 11 6 13 11 5 11 -10 0 -10 3 0 14 7 8 18 11 23 8 6 -3 4 1 -3 10
-10 13 -10 17 3 22 8 3 15 12 15 21 0 8 5 15 11 15 5 0 7 5 4 10 -3 6 -1 10 5
10 6 0 8 5 5 10 -3 6 1 13 9 16 9 3 16 10 16 16 0 5 -5 6 -11 3 -6 -4 -5 2 3
14 7 12 16 21 21 21 4 0 6 4 2 9 -3 5 2 17 11 25 8 9 12 16 8 16 -3 0 -1 6 5
13 6 8 8 17 4 20 -3 4 -1 7 6 7 8 0 11 7 7 15 -5 14 6 20 28 16 5 -1 4 5 -4
13 -9 12 -9 16 -1 16 7 0 9 5 6 10 -3 6 -2 10 4 10 6 0 8 7 5 15 -4 8 1 17 10
21 9 3 13 10 10 15 -3 5 -1 9 5 9 6 0 8 7 5 15 -4 9 0 15 10 15 19 0 21 16 4
24 -9 3 -6 11 11 25 14 13 18 21 10 21 -12 0 -12 2 0 9 7 5 10 14 7 20 -5 7
-2 10 6 9 7 -2 13 4 13 12 1 8 7 25 13 38 7 12 10 26 8 31 -3 5 1 12 10 15 13
5 14 9 5 20 -8 10 -9 16 -2 21 6 3 16 15 22 27 9 16 8 19 -3 12 -11 -6 -11 -5
1 9 7 9 11 24 7 32 -4 11 -2 14 6 9 7 -5 9 0 6 14 -4 12 -2 20 3 16 5 -3 9 10
9 29 0 19 6 40 14 46 7 6 11 22 8 36 -2 14 0 25 6 25 5 0 13 7 16 16 3 8 2 13
-3 9 -5 -3 -4 8 2 24 6 17 14 28 18 25 4 -2 6 7 3 21 -2 14 0 25 6 25 6 0 8 5
5 10 -3 6 -2 10 4 10 6 0 8 7 5 15 -4 8 -1 15 5 15 13 0 10 22 -4 32 -5 4 -1
8 10 8 17 0 17 2 5 10 -12 7 -12 10 -1 10 7 0 11 6 8 15 -4 8 -2 17 3 20 6 4
10 17 10 31 0 14 5 34 10 45 8 14 7 19 -2 19 -10 0 -10 2 -1 8 7 4 14 21 16
38 2 16 7 35 11 42 4 7 4 17 1 22 -3 6 -1 10 6 10 7 0 9 3 6 7 -4 3 -1 13 6
21 9 13 9 14 0 8 -9 -5 -11 -2 -7 8 3 9 11 16 16 16 6 0 4 8 -3 17 -12 14 -12
16 0 8 11 -6 13 -4 8 8 -3 10 -2 17 4 17 6 0 7 5 4 10 -3 6 -2 10 4 10 6 0 8
7 5 15 -4 8 -1 15 6 15 7 0 10 6 7 14 -3 7 1 23 9 35 8 11 12 21 8 21 -3 0 -1
6 5 13 6 8 8 17 4 20 -3 4 1 9 9 12 10 4 14 14 11 26 -3 10 -1 19 4 19 9 0 11
6 15 49 1 11 5 18 8 16 3 -1 11 3 18 11 7 8 9 14 4 14 -5 0 -3 16 6 34 9 19
19 33 23 30 4 -2 6 4 5 13 -2 10 5 31 15 48 11 16 22 37 25 45 31 78 44 103
45 90 1 -8 5 1 8 20 4 23 12 34 21 32 11 -3 11 0 1 12 -11 13 -10 17 3 22 9 3
13 10 10 15 -3 5 1 12 10 15 8 3 12 12 9 20 -3 8 0 14 6 14 6 0 11 3 10 8 -2
14 13 52 20 48 4 -3 8 5 8 17 1 12 7 23 13 25 5 2 8 8 4 13 -3 5 0 9 6 9 6 0
8 5 5 10 -3 6 -1 10 5 10 6 0 8 5 5 10 -3 6 -1 10 6 10 6 0 9 8 6 20 -3 11 -1
18 3 15 5 -3 11 4 15 15 3 11 10 20 15 20 5 0 7 6 4 13 -2 7 4 22 15 34 11 11
17 23 14 27 -3 3 2 8 11 12 9 3 16 11 16 18 0 7 15 27 34 46 19 19 32 39 28
44 -3 5 2 7 11 3 9 -3 16 -3 16 1 -3 19 2 32 14 32 7 0 18 9 25 20 7 12 17 18
23 15 5 -4 8 -1 7 7 -2 7 3 12 10 10 6 -1 11 4 10 10 -2 7 5 12 14 12 10 -1
16 1 13 5 -2 4 5 13 15 21 10 8 16 18 13 24 -4 6 2 4 12 -4 11 -9 16 -10 11
-2 -4 6 -2 12 4 12 6 0 23 12 37 28 15 15 23 20 19 12 -4 -8 3 -4 16 10 13 14
31 26 39 28 8 2 19 9 24 16 11 13 45 30 58 28 4 -1 7 2 7 7 0 4 13 7 30 5 16
-2 41 0 54 5 15 6 27 6 35 -2 8 -8 11 -7 11 4 0 12 2 12 10 -1 9 -13 11 -13
20 0 5 8 10 10 10 4 0 -6 7 -11 15 -11 8 0 15 4 15 9 0 5 5 6 10 3 6 -4 7 -12
4 -18 -5 -9 -4 -9 5 -1 8 7 27 8 53 4 23 -5 48 -6 55 -3 7 3 13 1 13 -3 0 -5
16 -10 36 -11 20 -1 41 -7 48 -12 9 -7 16 -7 24 1 7 7 12 8 12 2 0 -5 10 -10
22 -11 11 -1 25 -8 29 -15 7 -11 9 -10 9 1 0 8 6 11 18 6 9 -4 31 -9 47 -12
17 -3 33 -10 38 -16 5 -9 9 -8 16 2 5 8 10 9 12 2 2 -5 19 -11 37 -13 17 -1
32 -6 32 -11 0 -5 14 -7 30 -5 17 3 30 0 30 -5 0 -5 7 -6 16 -3 8 3 12 2 9 -4
-3 -6 3 -11 14 -11 57 -4 66 -6 64 -14 -1 -6 16 -9 37 -9 23 1 41 -3 44 -11 3
-8 17 -11 36 -9 21 3 29 0 24 -7 -4 -7 1 -9 15 -4 12 4 21 2 21 -4 0 -6 5 -11
11 -11 5 0 7 4 4 10 -3 6 1 7 9 4 9 -3 16 -11 16 -17 0 -8 3 -8 11 0 9 9 17 8
33 -2 11 -7 29 -11 39 -10 9 2 17 -1 17 -5 0 -5 8 -9 18 -9 39 -1 52 -5 52
-15 0 -6 5 -5 12 2 16 16 31 15 22 0 -4 -7 -3 -10 1 -5 13 11 17 48 7 61 -9
13 -9 23 3 50 5 12 3 21 -6 27 -8 5 -9 9 -3 9 6 0 11 7 11 15 0 10 -6 14 -16
10 -11 -3 -10 0 3 10 11 8 14 15 7 15 -7 0 -9 5 -6 10 3 6 1 10 -5 10 -6 0 -8
5 -5 10 3 6 1 10 -6 10 -7 0 -10 3 -6 6 3 4 -4 15 -16 26 -12 11 -16 16 -9 13
11 -6 12 -3 3 14 -7 11 -17 21 -24 21 -7 0 -6 4 3 10 13 8 12 10 -2 10 -10 0
-18 6 -18 13 0 7 -9 23 -20 35 -11 12 -20 26 -20 31 0 5 -10 17 -22 26 -13 8
-23 19 -23 23 0 4 -3 6 -7 4 -8 -2 -12 15 -8 33 1 6 -2 7 -6 3 -4 -4 -15 2
-25 14 -11 11 -19 17 -19 13 0 -4 -13 6 -30 23 -16 18 -30 28 -30 24 -1 -4
-10 4 -20 17 -11 13 -20 18 -20 11 0 -7 -8 -3 -19 8 -10 12 -23 22 -30 22 -6
0 -11 5 -11 10 0 6 -7 10 -15 10 -8 0 -15 5 -15 11 0 5 -4 7 -10 4 -5 -3 -10
1 -10 9 0 9 -7 13 -19 11 -15 -3 -18 1 -14 12 5 11 3 14 -6 9 -8 -5 -18 0 -28
14 -8 12 -21 19 -29 16 -8 -3 -13 -2 -13 2 1 4 1 14 0 22 -1 13 -2 13 -11 0
-8 -12 -10 -10 -10 8 0 13 -4 21 -9 18 -5 -3 -27 12 -50 34 -23 22 -41 38 -41
35 0 -3 -6 0 -14 7 -8 7 -11 17 -8 22 3 5 0 6 -5 3 -6 -4 -16 0 -23 8 -7 8
-19 15 -26 15 -8 0 -14 6 -14 13 0 18 -67 60 -81 51 -8 -5 -10 -2 -6 8 8 22
-3 30 -21 15 -13 -9 -14 -9 -8 1 4 7 2 12 -4 12 -6 0 -8 4 -5 10 3 5 0 7 -8 5
-7 -3 -24 3 -36 14 -13 12 -28 18 -32 15 -5 -3 -9 -1 -9 5 0 5 -8 8 -17 6 -10
-1 -28 7 -40 18 -13 11 -23 16 -23 11 0 -5 -7 4 -15 20 -8 15 -15 36 -15 45 0
10 -9 27 -20 39 -11 12 -20 26 -20 33 0 6 -10 20 -22 30 -11 11 -17 19 -13 19
4 0 -4 11 -19 25 -14 13 -26 29 -26 35 0 6 -4 8 -10 5 -5 -3 -10 -1 -10 5 0 7
-11 21 -25 32 -14 11 -22 24 -19 30 4 7 2 8 -5 4 -7 -5 -20 2 -33 16 -11 12
-24 22 -29 21 -5 -2 -9 3 -9 10 0 8 -10 22 -22 33 -22 19 -22 19 -8 0 14 -18
14 -18 -7 -6 -12 8 -20 17 -18 21 3 3 -11 14 -30 25 -18 10 -32 21 -30 24 2 3
-5 12 -17 19 -11 7 -17 8 -13 2 3 -6 1 -11 -4 -11 -6 0 -11 7 -11 16 0 8 -4
13 -8 10 -5 -3 -14 4 -22 14 -8 10 -17 17 -21 15 -4 -3 -12 2 -19 10 -7 8 -21
15 -32 15 -10 0 -17 4 -14 9 3 5 -1 12 -10 15 -10 4 -13 2 -9 -7 4 -6 0 -4 -9
7 -8 10 -19 15 -25 11 -6 -3 -11 -2 -11 4 0 6 -11 13 -25 17 -14 3 -25 10 -25
15 0 5 -9 9 -20 9 -11 0 -20 4 -20 8 0 4 -9 8 -20 9 -11 1 -27 9 -36 17 -9 9
-20 13 -25 10 -6 -3 -19 2 -30 12 -15 13 -19 14 -19 3 -1 -10 -4 -9 -14 4 -11
14 -15 15 -19 5 -3 -8 -6 -5 -6 7 -1 17 -3 17 -11 5 -7 -12 -10 -12 -10 -1 0
8 -6 11 -15 7 -9 -3 -18 1 -22 10 -5 13 -7 13 -14 2 -6 -9 -9 -9 -9 -1 0 6 -9
10 -20 8 -11 -2 -20 0 -20 4 0 4 -6 8 -12 8 -7 0 -21 4 -30 8 -12 5 -18 3 -18
-6 0 -8 -6 -5 -16 7 -8 10 -13 14 -10 7 4 -7 -1 -11 -14 -10 -11 1 -19 6 -17
12 5 11 -71 14 -88 3 -6 -4 -17 -3 -25 3 -20 12 -33 11 -24 -2 5 -8 1 -8 -14
0 -27 14 -54 15 -32 1 9 -6 10 -10 3 -10 -6 0 -15 5 -18 10 -3 6 -14 10 -23 9
-14 0 -14 -2 2 -8z m-2689 -8343 c6 0 9 -4 8 -9 -2 -5 1 -9 6 -9 12 0 32 -60
24 -73 -4 -6 -1 -7 7 -2 10 6 12 4 7 -8 -3 -9 -1 -19 5 -23 7 -4 6 -9 -3 -15
-10 -6 -11 -9 -2 -9 14 0 13 -26 -4 -54 -6 -10 -15 -16 -22 -12 -6 4 -9 12 -6
17 4 5 1 9 -4 9 -6 0 -11 5 -11 11 0 5 6 7 13 4 6 -4 4 0 -5 8 -21 16 -24 32
-5 21 8 -6 8 -3 -1 9 -8 9 -11 21 -7 27 3 5 1 10 -6 10 -7 0 -9 3 -6 7 4 3 1
13 -6 21 -10 13 -9 14 3 7 9 -5 7 1 -5 15 -11 13 -14 20 -6 15 10 -6 12 -4 5
6 -11 19 -14 41 -7 53 4 5 9 2 13 -8 3 -10 10 -18 15 -18z m435 -408 c14 -6
40 -11 58 -13 17 -2 35 -7 40 -12 4 -5 0 -5 -8 0 -9 5 -12 4 -7 -1 4 -4 24 -7
44 -5 21 2 33 -1 29 -7 -3 -5 4 -10 17 -10 12 0 31 -2 42 -5 11 -3 24 -6 28
-6 5 -1 6 -5 2 -10 -3 -6 -14 -8 -25 -6 -12 2 -20 -2 -20 -10 0 -8 -10 -12
-29 -11 -17 1 -28 -1 -26 -4 3 -4 -8 -13 -23 -21 -15 -8 -29 -17 -32 -20 -3
-3 -15 -11 -27 -18 -18 -9 -23 -9 -23 1 0 11 -2 11 -8 0 -11 -16 -45 -4 -38
14 3 9 0 11 -11 7 -11 -4 -14 -2 -9 5 5 8 1 10 -10 5 -12 -4 -15 -3 -10 5 4 7
2 12 -5 12 -6 0 -20 10 -30 22 -11 11 -19 16 -19 9 0 -7 -5 -9 -10 -6 -6 4 -8
10 -5 15 3 4 -4 6 -15 3 -13 -3 -20 0 -20 8 0 12 -2 12 -9 0 -7 -10 -9 -7 -8
12 1 14 5 23 9 21 4 -2 13 4 20 14 7 10 20 21 28 24 20 7 78 0 110 -12z"/>
</g>
</svg>
